<svg xmlns="http://www.w3.org/2000/svg" xmlns:xlink="http://www.w3.org/1999/xlink" width="480" zoomAndPan="magnify" viewBox="15.886719 0 299.859375 360" height="480" preserveAspectRatio="xMidYMid meet" version="1.2"><defs><clipPath id="f60805ab20"><path d="M 15.816406 0 L 315.816406 0 L 315.816406 360 L 15.816406 360 Z M 15.816406 0 "/></clipPath></defs><g id="a515b13301"><g clip-rule="nonzero" clip-path="url(#f60805ab20)"><path style=" stroke:none;fill-rule:nonzero;fill:#000000;fill-opacity:1;" d="M 165.816406 0 C 81.75 0 15.886719 29.65625 15.886719 67.5 L 15.886719 292.5 C 15.886719 330.34375 81.75 360 165.816406 360 C 249.882812 360 315.746094 330.34375 315.746094 292.5 L 315.746094 67.5 C 315.746094 29.65625 249.882812 0 165.816406 0 Z M 300.753906 217.5 C 300.753906 242.324219 245.339844 270 165.816406 270 C 86.292969 270 30.878906 242.324219 30.878906 217.5 L 30.878906 172.230469 C 54.914062 194.761719 105.617188 210 165.816406 210 C 226.011719 210 276.71875 194.761719 300.753906 172.230469 Z M 300.753906 142.5 C 300.753906 167.324219 245.339844 195 165.816406 195 C 86.292969 195 30.878906 167.324219 30.878906 142.5 L 30.878906 97.230469 C 54.914062 119.761719 105.617188 135 165.816406 135 C 226.011719 135 276.71875 119.761719 300.753906 97.230469 Z M 165.816406 15 C 245.339844 15 300.753906 42.675781 300.753906 67.5 C 300.753906 92.324219 245.339844 120 165.816406 120 C 86.292969 120 30.878906 92.324219 30.878906 67.5 C 30.878906 42.675781 86.292969 15 165.816406 15 Z M 165.816406 345 C 86.292969 345 30.878906 317.324219 30.878906 292.5 L 30.878906 247.230469 C 54.914062 269.761719 105.617188 285 165.816406 285 C 226.011719 285 276.71875 269.761719 300.753906 247.230469 L 300.753906 292.5 C 300.753906 317.324219 245.339844 345 165.816406 345 Z M 165.816406 345 "/></g></g></svg>