<svg xmlns="http://www.w3.org/2000/svg" xmlns:xlink="http://www.w3.org/1999/xlink" width="480" zoomAndPan="magnify" viewBox="0 0 360 359.999987" height="480" preserveAspectRatio="xMidYMid meet" version="1.2"><defs><clipPath id="2693ee41bb"><path d="M 104.796875 101.539062 L 120.546875 101.539062 L 120.546875 112.789062 L 104.796875 112.789062 Z M 104.796875 101.539062 "/></clipPath><clipPath id="f60805ab20"><path d="M 15.816406 0 L 315.816406 0 L 315.816406 360 L 15.816406 360 Z M 15.816406 0 "/></clipPath></defs><g id="a515b13301"><rect x="0" width="360" y="0" height="359.999987" style="fill:#ffffff;fill-opacity:1;stroke:none;"/><rect x="0" width="360" y="0" height="359.999987" style="fill:#ffffff;fill-opacity:1;stroke:none;"/><g clip-rule="nonzero" clip-path="url(#2693ee41bb)"><path style=" stroke:none;fill-rule:nonzero;fill:#ffffff;fill-opacity:1;" d="M 106.429688 112.070312 C 106.207031 112.070312 105.992188 112.003906 105.808594 111.882812 L 110.199219 107.386719 L 111.613281 108.824219 C 111.84375 109.0625 112.15625 109.191406 112.488281 109.191406 C 112.820312 109.191406 113.132812 109.0625 113.363281 108.828125 L 114.78125 107.386719 L 119.183594 111.886719 C 119 112.003906 118.785156 112.070312 118.5625 112.070312 Z M 105.460938 111.53125 C 105.351562 111.351562 105.289062 111.144531 105.289062 110.929688 L 105.289062 103.175781 C 105.289062 102.957031 105.351562 102.75 105.464844 102.570312 L 109.851562 107.035156 Z M 106.429688 102.035156 L 118.5625 102.035156 C 118.785156 102.035156 118.996094 102.097656 119.179688 102.21875 L 114.609375 106.859375 L 113.011719 108.480469 C 112.875 108.621094 112.6875 108.699219 112.488281 108.699219 C 112.289062 108.699219 112.105469 108.621094 111.964844 108.480469 L 110.375 106.859375 L 105.8125 102.21875 C 105.992188 102.101562 106.207031 102.035156 106.429688 102.035156 Z M 115.128906 107.035156 L 119.527344 102.570312 C 119.640625 102.75 119.703125 102.957031 119.703125 103.175781 L 119.703125 110.929688 C 119.703125 111.144531 119.640625 111.351562 119.527344 111.53125 Z M 119.71875 102.023438 C 119.410156 101.714844 119 101.542969 118.5625 101.542969 L 106.429688 101.542969 C 105.992188 101.542969 105.578125 101.714844 105.269531 102.023438 C 105.269531 102.023438 105.269531 102.023438 105.269531 102.027344 C 104.964844 102.332031 104.796875 102.742188 104.796875 103.175781 L 104.796875 110.929688 C 104.796875 111.363281 104.964844 111.769531 105.269531 112.078125 C 105.269531 112.078125 105.269531 112.078125 105.269531 112.082031 C 105.269531 112.082031 105.273438 112.082031 105.273438 112.082031 C 105.582031 112.390625 105.992188 112.5625 106.429688 112.5625 L 118.5625 112.5625 C 119 112.5625 119.410156 112.390625 119.71875 112.082031 C 119.71875 112.082031 119.722656 112.078125 119.722656 112.078125 C 120.027344 111.769531 120.195312 111.363281 120.195312 110.929688 L 120.195312 103.175781 C 120.195312 102.742188 120.027344 102.332031 119.71875 102.023438 "/></g><g clip-rule="nonzero" clip-path="url(#f60805ab20)"><path style=" stroke:none;fill-rule:nonzero;fill:#000000;fill-opacity:1;" d="M 165.816406 0 C 81.75 0 15.886719 29.65625 15.886719 67.5 L 15.886719 292.5 C 15.886719 330.34375 81.75 360 165.816406 360 C 249.882812 360 315.746094 330.34375 315.746094 292.5 L 315.746094 67.5 C 315.746094 29.65625 249.882812 0 165.816406 0 Z M 300.753906 217.5 C 300.753906 242.324219 245.339844 270 165.816406 270 C 86.292969 270 30.878906 242.324219 30.878906 217.5 L 30.878906 172.230469 C 54.914062 194.761719 105.617188 210 165.816406 210 C 226.011719 210 276.71875 194.761719 300.753906 172.230469 Z M 300.753906 142.5 C 300.753906 167.324219 245.339844 195 165.816406 195 C 86.292969 195 30.878906 167.324219 30.878906 142.5 L 30.878906 97.230469 C 54.914062 119.761719 105.617188 135 165.816406 135 C 226.011719 135 276.71875 119.761719 300.753906 97.230469 Z M 165.816406 15 C 245.339844 15 300.753906 42.675781 300.753906 67.5 C 300.753906 92.324219 245.339844 120 165.816406 120 C 86.292969 120 30.878906 92.324219 30.878906 67.5 C 30.878906 42.675781 86.292969 15 165.816406 15 Z M 165.816406 345 C 86.292969 345 30.878906 317.324219 30.878906 292.5 L 30.878906 247.230469 C 54.914062 269.761719 105.617188 285 165.816406 285 C 226.011719 285 276.71875 269.761719 300.753906 247.230469 L 300.753906 292.5 C 300.753906 317.324219 245.339844 345 165.816406 345 Z M 165.816406 345 "/></g></g></svg>