<svg xmlns="http://www.w3.org/2000/svg" xmlns:xlink="http://www.w3.org/1999/xlink" width="480" zoomAndPan="magnify" viewBox="0 0 360 359.999987" height="480" preserveAspectRatio="xMidYMid meet" version="1.2"><defs><clipPath id="784beec121"><path d="M 104.796875 101.539062 L 120.546875 101.539062 L 120.546875 112.789062 L 104.796875 112.789062 Z M 104.796875 101.539062 "/></clipPath></defs><g id="cfc01097ea"><rect x="0" width="360" y="0" height="359.999987" style="fill:#ffffff;fill-opacity:1;stroke:none;"/><rect x="0" width="360" y="0" height="359.999987" style="fill:#ffffff;fill-opacity:1;stroke:none;"/><g clip-rule="nonzero" clip-path="url(#784beec121)"><path style=" stroke:none;fill-rule:nonzero;fill:#ffffff;fill-opacity:1;" d="M 106.429688 112.070312 C 106.207031 112.070312 105.992188 112.003906 105.808594 111.882812 L 110.199219 107.386719 L 111.613281 108.824219 C 111.84375 109.0625 112.15625 109.191406 112.488281 109.191406 C 112.820312 109.191406 113.132812 109.0625 113.363281 108.828125 L 114.78125 107.386719 L 119.183594 111.886719 C 119 112.003906 118.785156 112.070312 118.5625 112.070312 Z M 105.460938 111.53125 C 105.351562 111.351562 105.289062 111.144531 105.289062 110.929688 L 105.289062 103.175781 C 105.289062 102.957031 105.351562 102.75 105.464844 102.570312 L 109.851562 107.035156 Z M 106.429688 102.035156 L 118.5625 102.035156 C 118.785156 102.035156 118.996094 102.097656 119.179688 102.21875 L 114.609375 106.859375 L 113.011719 108.480469 C 112.875 108.621094 112.6875 108.699219 112.488281 108.699219 C 112.289062 108.699219 112.105469 108.621094 111.964844 108.480469 L 110.375 106.859375 L 105.8125 102.21875 C 105.992188 102.101562 106.207031 102.035156 106.429688 102.035156 Z M 115.128906 107.035156 L 119.527344 102.570312 C 119.640625 102.75 119.703125 102.957031 119.703125 103.175781 L 119.703125 110.929688 C 119.703125 111.144531 119.640625 111.351562 119.527344 111.53125 Z M 119.71875 102.023438 C 119.410156 101.714844 119 101.542969 118.5625 101.542969 L 106.429688 101.542969 C 105.992188 101.542969 105.578125 101.714844 105.269531 102.023438 C 105.269531 102.023438 105.269531 102.023438 105.269531 102.027344 C 104.964844 102.332031 104.796875 102.742188 104.796875 103.175781 L 104.796875 110.929688 C 104.796875 111.363281 104.964844 111.769531 105.269531 112.078125 C 105.269531 112.078125 105.269531 112.078125 105.269531 112.082031 C 105.269531 112.082031 105.273438 112.082031 105.273438 112.082031 C 105.582031 112.390625 105.992188 112.5625 106.429688 112.5625 L 118.5625 112.5625 C 119 112.5625 119.410156 112.390625 119.71875 112.082031 C 119.71875 112.082031 119.722656 112.078125 119.722656 112.078125 C 120.027344 111.769531 120.195312 111.363281 120.195312 110.929688 L 120.195312 103.175781 C 120.195312 102.742188 120.027344 102.332031 119.71875 102.023438 "/></g><path style=" stroke:none;fill-rule:nonzero;fill:#000000;fill-opacity:1;" d="M 325.71875 32.730469 C 292.757812 -0.242188 239.136719 -0.242188 206.195312 32.730469 L 165.71875 73.21875 C 159.671875 79.269531 159.671875 89.070312 165.71875 95.121094 C 171.765625 101.171875 181.5625 101.171875 187.609375 95.121094 L 228.089844 54.632812 C 279.691406 6.140625 352.410156 78.867188 303.824219 130.40625 C 303.828125 130.40625 256.523438 177.742188 256.523438 177.742188 C 232.574219 202.355469 189.820312 197.015625 172.683594 167.292969 C 168.316406 159.921875 158.8125 157.511719 151.464844 161.867188 C 135.28125 172.078125 149.066406 190.207031 158.882812 199.644531 C 175.363281 216.132812 197.003906 224.371094 218.644531 224.371094 C 240.296875 224.371094 261.9375 216.132812 278.417969 199.644531 L 325.71875 152.320312 C 358.527344 120.832031 358.542969 64.210938 325.71875 32.730469 Z M 325.71875 32.730469 "/><path style=" stroke:none;fill-rule:nonzero;fill:#000000;fill-opacity:1;" d="M 193.417969 240.878906 L 152.9375 281.367188 C 101.722656 330.007812 28.578125 256.867188 77.203125 205.59375 C 77.199219 205.59375 124.503906 158.257812 124.503906 158.257812 C 148.417969 133.695312 191.105469 138.929688 208.261719 168.617188 C 212.617188 175.988281 222.132812 178.417969 229.472656 174.039062 C 245.632812 163.890625 231.90625 145.714844 222.140625 136.355469 C 189.183594 103.378906 135.570312 103.402344 102.609375 136.355469 C 102.609375 136.355469 55.308594 183.691406 55.308594 183.691406 C 2.054688 236.226562 41.105469 328.859375 115.070312 327.992188 C 136.710938 327.996094 158.359375 319.757812 174.828125 303.269531 L 215.308594 262.78125 C 229.441406 248.125 208.054688 226.730469 193.417969 240.878906 Z M 193.417969 240.878906 "/></g></svg>