<svg xmlns="http://www.w3.org/2000/svg" xmlns:xlink="http://www.w3.org/1999/xlink" width="480" height="480" viewBox="0 0 360 270.75" preserveAspectRatio="xMidYMid meet" version="1.2">
<path style="stroke:none;fill-rule:nonzero;fill:#000000;fill-opacity:1;" d="M 45.007812 112.882812 C 40.863281 112.882812 37.511719 109.523438 37.511719 105.386719 L 37.511719 45.402344 C 37.511719 41.257812 40.875 37.910156 45.007812 37.910156 L 105.011719 37.910156 C 109.160156 37.910156 112.511719 41.269531 112.511719 45.402344 C 112.511719 49.550781 109.148438 52.898438 105.011719 52.898438 L 52.507812 52.898438 L 52.507812 105.375 C 52.507812 109.523438 49.144531 112.882812 45.007812 112.882812 Z"/>
<path style="stroke:none;fill-rule:nonzero;fill:#000000;fill-opacity:1;" d="M 315.015625 232.828125 L 255.011719 232.828125 C 250.863281 232.828125 247.511719 229.46875 247.511719 225.335938 C 247.511719 221.199219 250.875 217.839844 255.011719 217.839844 L 307.515625 217.839844 L 307.515625 165.363281 C 307.515625 161.214844 310.878906 157.867188 315.015625 157.867188 C 319.160156 157.867188 322.511719 161.226562 322.511719 165.363281 L 322.511719 225.335938 C 322.523438 229.46875 319.160156 232.828125 315.015625 232.828125 Z"/>
<path style="stroke:none;fill-rule:nonzero;fill:#000000;fill-opacity:1;" d="M 337.859375 270.308594 L 22.152344 270.308594 C 9.933594 270.308594 0 260.367188 0 248.167969 L 0 22.570312 C 0 10.359375 9.933594 0.429688 22.152344 0.429688 L 337.859375 0.429688 C 350.078125 0.429688 360.023438 10.359375 360.023438 22.570312 L 360.023438 248.15625 C 360.023438 260.367188 350.078125 270.308594 337.859375 270.308594 Z M 22.152344 15.417969 C 18.203125 15.417969 14.996094 18.625 14.996094 22.570312 L 14.996094 248.15625 C 14.996094 252.101562 18.203125 255.308594 22.152344 255.308594 L 337.859375 255.308594 C 341.808594 255.308594 345.015625 252.101562 345.015625 248.15625 L 345.015625 22.570312 C 345.015625 18.625 341.808594 15.417969 337.859375 15.417969 Z"/>
</svg>