<svg xmlns="http://www.w3.org/2000/svg" xmlns:xlink="http://www.w3.org/1999/xlink" width="480" zoomAndPan="magnify" viewBox="0 0 360 359.999987" height="480" preserveAspectRatio="xMidYMid meet" version="1.2"><defs><clipPath id="c3cff5db76"><path d="M 104.796875 101.539062 L 120.546875 101.539062 L 120.546875 112.789062 L 104.796875 112.789062 Z M 104.796875 101.539062 "/></clipPath><clipPath id="7521f9a300"><path d="M 0 0 L 360 0 L 360 270.75 L 0 270.75 Z M 0 0 "/></clipPath></defs><g id="268c232ac9"><rect x="0" width="360" y="0" height="359.999987" style="fill:#ffffff;fill-opacity:1;stroke:none;"/><rect x="0" width="360" y="0" height="359.999987" style="fill:#ffffff;fill-opacity:1;stroke:none;"/><g clip-rule="nonzero" clip-path="url(#c3cff5db76)"><path style=" stroke:none;fill-rule:nonzero;fill:#ffffff;fill-opacity:1;" d="M 106.429688 112.070312 C 106.207031 112.070312 105.992188 112.003906 105.808594 111.882812 L 110.199219 107.386719 L 111.613281 108.824219 C 111.84375 109.0625 112.15625 109.191406 112.488281 109.191406 C 112.820312 109.191406 113.132812 109.0625 113.363281 108.828125 L 114.78125 107.386719 L 119.183594 111.886719 C 119 112.003906 118.785156 112.070312 118.5625 112.070312 Z M 105.460938 111.53125 C 105.351562 111.351562 105.289062 111.144531 105.289062 110.929688 L 105.289062 103.175781 C 105.289062 102.957031 105.351562 102.75 105.464844 102.570312 L 109.851562 107.035156 Z M 106.429688 102.035156 L 118.5625 102.035156 C 118.785156 102.035156 118.996094 102.097656 119.179688 102.21875 L 114.609375 106.859375 L 113.011719 108.480469 C 112.875 108.621094 112.6875 108.699219 112.488281 108.699219 C 112.289062 108.699219 112.105469 108.621094 111.964844 108.480469 L 110.375 106.859375 L 105.8125 102.21875 C 105.992188 102.101562 106.207031 102.035156 106.429688 102.035156 Z M 115.128906 107.035156 L 119.527344 102.570312 C 119.640625 102.75 119.703125 102.957031 119.703125 103.175781 L 119.703125 110.929688 C 119.703125 111.144531 119.640625 111.351562 119.527344 111.53125 Z M 119.71875 102.023438 C 119.410156 101.714844 119 101.542969 118.5625 101.542969 L 106.429688 101.542969 C 105.992188 101.542969 105.578125 101.714844 105.269531 102.023438 C 105.269531 102.023438 105.269531 102.023438 105.269531 102.027344 C 104.964844 102.332031 104.796875 102.742188 104.796875 103.175781 L 104.796875 110.929688 C 104.796875 111.363281 104.964844 111.769531 105.269531 112.078125 C 105.269531 112.078125 105.269531 112.078125 105.269531 112.082031 C 105.269531 112.082031 105.273438 112.082031 105.273438 112.082031 C 105.582031 112.390625 105.992188 112.5625 106.429688 112.5625 L 118.5625 112.5625 C 119 112.5625 119.410156 112.390625 119.71875 112.082031 C 119.71875 112.082031 119.722656 112.078125 119.722656 112.078125 C 120.027344 111.769531 120.195312 111.363281 120.195312 110.929688 L 120.195312 103.175781 C 120.195312 102.742188 120.027344 102.332031 119.71875 102.023438 "/></g><path style=" stroke:none;fill-rule:nonzero;fill:#000000;fill-opacity:1;" d="M 45.007812 112.882812 C 40.863281 112.882812 37.511719 109.523438 37.511719 105.386719 L 37.511719 45.402344 C 37.511719 41.257812 40.875 37.910156 45.007812 37.910156 L 105.011719 37.910156 C 109.160156 37.910156 112.511719 41.269531 112.511719 45.402344 C 112.511719 49.550781 109.148438 52.898438 105.011719 52.898438 L 52.507812 52.898438 L 52.507812 105.375 C 52.507812 109.523438 49.144531 112.882812 45.007812 112.882812 Z M 45.007812 112.882812 "/><path style=" stroke:none;fill-rule:nonzero;fill:#000000;fill-opacity:1;" d="M 315.015625 232.828125 L 255.011719 232.828125 C 250.863281 232.828125 247.511719 229.46875 247.511719 225.335938 C 247.511719 221.199219 250.875 217.839844 255.011719 217.839844 L 307.515625 217.839844 L 307.515625 165.363281 C 307.515625 161.214844 310.878906 157.867188 315.015625 157.867188 C 319.160156 157.867188 322.511719 161.226562 322.511719 165.363281 L 322.511719 225.335938 C 322.523438 229.46875 319.160156 232.828125 315.015625 232.828125 Z M 315.015625 232.828125 "/><g clip-rule="nonzero" clip-path="url(#7521f9a300)"><path style=" stroke:none;fill-rule:nonzero;fill:#000000;fill-opacity:1;" d="M 337.859375 270.308594 L 22.152344 270.308594 C 9.933594 270.308594 0 260.367188 0 248.167969 L 0 22.570312 C 0 10.359375 9.933594 0.429688 22.152344 0.429688 L 337.859375 0.429688 C 350.078125 0.429688 360.023438 10.359375 360.023438 22.570312 L 360.023438 248.15625 C 360.023438 260.367188 350.078125 270.308594 337.859375 270.308594 Z M 22.152344 15.417969 C 18.203125 15.417969 14.996094 18.625 14.996094 22.570312 L 14.996094 248.15625 C 14.996094 252.101562 18.203125 255.308594 22.152344 255.308594 L 337.859375 255.308594 C 341.808594 255.308594 345.015625 252.101562 345.015625 248.15625 L 345.015625 22.570312 C 345.015625 18.625 341.808594 15.417969 337.859375 15.417969 Z M 22.152344 15.417969 "/></g></g></svg>