<svg xmlns="http://www.w3.org/2000/svg" xmlns:xlink="http://www.w3.org/1999/xlink" width="480" zoomAndPan="magnify" viewBox="0 0 360 257.25" height="480" preserveAspectRatio="xMidYMid meet" version="1.2"><defs><clipPath id="86d9d5a96b"><path d="M 0 0 L 360 0 L 360 257.25 L 0 257.25 Z M 0 0 "/></clipPath></defs><g id="ce9188dfe8"><g clip-rule="nonzero" clip-path="url(#86d9d5a96b)"><path style=" stroke:none;fill-rule:nonzero;fill:#08548c;fill-opacity:1;" d="M 350.867188 14.019531 C 349.070312 11.839844 347.054688 9.878906 344.828125 8.140625 C 342.597656 6.402344 340.207031 4.929688 337.652344 3.71875 C 335.101562 2.503906 332.445312 1.585938 329.691406 0.960938 C 326.933594 0.332031 324.144531 0.0117188 321.320312 0 L 38.679688 0 C 37.417969 0 36.160156 0.0625 34.902344 0.1875 C 33.644531 0.308594 32.398438 0.496094 31.160156 0.742188 C 29.921875 0.988281 28.699219 1.292969 27.492188 1.660156 C 26.285156 2.027344 25.097656 2.453125 23.929688 2.9375 C 22.765625 3.421875 21.625 3.960938 20.511719 4.554688 C 19.398438 5.152344 18.316406 5.800781 17.265625 6.503906 C 16.21875 7.207031 15.207031 7.957031 14.230469 8.757812 C 13.253906 9.5625 12.320312 10.410156 11.425781 11.300781 C 10.535156 12.195312 9.6875 13.132812 8.886719 14.109375 C 8.085938 15.085938 7.335938 16.097656 6.632812 17.148438 C 5.933594 18.199219 5.285156 19.28125 4.6875 20.398438 C 4.09375 21.511719 3.554688 22.652344 3.070312 23.820312 C 2.589844 24.988281 2.164062 26.175781 1.796875 27.386719 C 1.429688 28.59375 1.125 29.820312 0.878906 31.058594 C 0.632812 32.300781 0.449219 33.546875 0.324219 34.804688 C 0.199219 36.0625 0.136719 37.324219 0.136719 38.585938 L 0.136719 218.664062 C 0.136719 219.925781 0.199219 221.1875 0.324219 222.445312 C 0.449219 223.703125 0.632812 224.949219 0.878906 226.191406 C 1.125 227.429688 1.429688 228.65625 1.796875 229.863281 C 2.164062 231.074219 2.589844 232.261719 3.070312 233.429688 C 3.554688 234.597656 4.09375 235.738281 4.6875 236.851562 C 5.285156 237.96875 5.933594 239.050781 6.632812 240.101562 C 7.335938 241.152344 8.085938 242.164062 8.886719 243.140625 C 9.6875 244.117188 10.535156 245.054688 11.425781 245.949219 C 12.320312 246.839844 13.253906 247.6875 14.230469 248.492188 C 15.207031 249.292969 16.21875 250.042969 17.265625 250.746094 C 18.316406 251.449219 19.398438 252.097656 20.511719 252.695312 C 21.625 253.289062 22.765625 253.828125 23.929688 254.3125 C 25.097656 254.796875 26.285156 255.222656 27.492188 255.589844 C 28.699219 255.957031 29.921875 256.261719 31.160156 256.507812 C 32.398438 256.753906 33.644531 256.941406 34.902344 257.0625 C 36.160156 257.1875 37.417969 257.25 38.679688 257.25 L 321.320312 257.25 C 322.582031 257.25 323.839844 257.1875 325.097656 257.0625 C 326.355469 256.941406 327.601562 256.753906 328.839844 256.507812 C 330.078125 256.261719 331.300781 255.957031 332.507812 255.589844 C 333.714844 255.222656 334.902344 254.796875 336.070312 254.3125 C 337.234375 253.828125 338.375 253.289062 339.488281 252.695312 C 340.601562 252.097656 341.683594 251.449219 342.734375 250.746094 C 343.78125 250.042969 344.792969 249.292969 345.769531 248.492188 C 346.746094 247.6875 347.679688 246.839844 348.574219 245.949219 C 349.464844 245.054688 350.3125 244.117188 351.113281 243.140625 C 351.914062 242.164062 352.664062 241.152344 353.367188 240.101562 C 354.066406 239.050781 354.714844 237.96875 355.3125 236.851562 C 355.90625 235.738281 356.445312 234.597656 356.929688 233.429688 C 357.410156 232.261719 357.835938 231.074219 358.203125 229.863281 C 358.570312 228.65625 358.875 227.429688 359.121094 226.191406 C 359.367188 224.949219 359.550781 223.703125 359.675781 222.445312 C 359.800781 221.1875 359.863281 219.925781 359.863281 218.664062 L 359.863281 38.585938 C 359.851562 36.359375 359.644531 34.144531 359.25 31.949219 C 358.855469 29.753906 358.273438 27.609375 357.507812 25.515625 C 356.742188 23.421875 355.800781 21.410156 354.6875 19.480469 C 353.570312 17.550781 352.296875 15.730469 350.867188 14.019531 Z M 310.144531 25.726562 L 180 113.0625 L 50.757812 25.726562 Z M 321.320312 231.523438 L 38.679688 231.523438 C 37.835938 231.523438 37 231.441406 36.171875 231.277344 C 35.347656 231.113281 34.542969 230.867188 33.761719 230.546875 C 32.984375 230.222656 32.242188 229.828125 31.542969 229.355469 C 30.839844 228.886719 30.191406 228.355469 29.59375 227.757812 C 29 227.160156 28.464844 226.511719 27.996094 225.808594 C 27.53125 225.105469 27.132812 224.363281 26.8125 223.585938 C 26.488281 222.804688 26.246094 222 26.078125 221.171875 C 25.914062 220.34375 25.832031 219.507812 25.832031 218.664062 L 25.832031 39.875 L 173.320312 139.300781 C 175.339844 140.664062 177.566406 141.394531 180 141.488281 C 182.621094 141.492188 185.019531 140.765625 187.195312 139.300781 L 334.167969 40.515625 L 334.167969 218.664062 C 334.167969 219.507812 334.085938 220.34375 333.921875 221.171875 C 333.753906 222 333.511719 222.804688 333.1875 223.585938 C 332.867188 224.363281 332.46875 225.105469 332.003906 225.808594 C 331.535156 226.511719 331 227.160156 330.402344 227.757812 C 329.808594 228.355469 329.160156 228.886719 328.457031 229.355469 C 327.757812 229.828125 327.015625 230.222656 326.234375 230.546875 C 325.457031 230.867188 324.652344 231.113281 323.828125 231.277344 C 323 231.441406 322.164062 231.523438 321.320312 231.523438 Z M 321.320312 231.523438 "/></g></g>
</svg>