<svg xmlns="http://www.w3.org/2000/svg" xmlns:xlink="http://www.w3.org/1999/xlink" width="480" zoomAndPan="magnify" viewBox="0 0 360 359.999987" height="480" preserveAspectRatio="xMidYMid meet" version="1.2"><defs><clipPath id="8bd2f60dae"><path d="M 104.796875 101.539062 L 120.546875 101.539062 L 120.546875 112.789062 L 104.796875 112.789062 Z M 104.796875 101.539062 "/></clipPath></defs><g id="20c1309582"><rect x="0" width="360" y="0" height="359.999987" style="fill:#ffffff;fill-opacity:1;stroke:none;"/><rect x="0" width="360" y="0" height="359.999987" style="fill:#ffffff;fill-opacity:1;stroke:none;"/><g clip-rule="nonzero" clip-path="url(#8bd2f60dae)"><path style=" stroke:none;fill-rule:nonzero;fill:#ffffff;fill-opacity:1;" d="M 106.429688 112.070312 C 106.207031 112.070312 105.992188 112.003906 105.808594 111.882812 L 110.199219 107.386719 L 111.613281 108.824219 C 111.84375 109.0625 112.15625 109.191406 112.488281 109.191406 C 112.820312 109.191406 113.132812 109.0625 113.363281 108.828125 L 114.78125 107.386719 L 119.183594 111.886719 C 119 112.003906 118.785156 112.070312 118.5625 112.070312 Z M 105.460938 111.53125 C 105.351562 111.351562 105.289062 111.144531 105.289062 110.929688 L 105.289062 103.175781 C 105.289062 102.957031 105.351562 102.75 105.464844 102.570312 L 109.851562 107.035156 Z M 106.429688 102.035156 L 118.5625 102.035156 C 118.785156 102.035156 118.996094 102.097656 119.179688 102.21875 L 114.609375 106.859375 L 113.011719 108.480469 C 112.875 108.621094 112.6875 108.699219 112.488281 108.699219 C 112.289062 108.699219 112.105469 108.621094 111.964844 108.480469 L 110.375 106.859375 L 105.8125 102.21875 C 105.992188 102.101562 106.207031 102.035156 106.429688 102.035156 Z M 115.128906 107.035156 L 119.527344 102.570312 C 119.640625 102.75 119.703125 102.957031 119.703125 103.175781 L 119.703125 110.929688 C 119.703125 111.144531 119.640625 111.351562 119.527344 111.53125 Z M 119.71875 102.023438 C 119.410156 101.714844 119 101.542969 118.5625 101.542969 L 106.429688 101.542969 C 105.992188 101.542969 105.578125 101.714844 105.269531 102.023438 C 105.269531 102.023438 105.269531 102.023438 105.269531 102.027344 C 104.964844 102.332031 104.796875 102.742188 104.796875 103.175781 L 104.796875 110.929688 C 104.796875 111.363281 104.964844 111.769531 105.269531 112.078125 C 105.269531 112.078125 105.269531 112.078125 105.269531 112.082031 C 105.269531 112.082031 105.273438 112.082031 105.273438 112.082031 C 105.582031 112.390625 105.992188 112.5625 106.429688 112.5625 L 118.5625 112.5625 C 119 112.5625 119.410156 112.390625 119.71875 112.082031 C 119.71875 112.082031 119.722656 112.078125 119.722656 112.078125 C 120.027344 111.769531 120.195312 111.363281 120.195312 110.929688 L 120.195312 103.175781 C 120.195312 102.742188 120.027344 102.332031 119.71875 102.023438 "/></g><path style=" stroke:none;fill-rule:nonzero;fill:#000000;fill-opacity:1;" d="M 342.300781 331.125 L 255.972656 248.265625 C 281.617188 220.855469 295.664062 185.3125 295.664062 147.601562 C 295.664062 109.894531 280.28125 71.121094 252.394531 43.230469 C 224.484375 15.34375 187.382812 0 147.933594 0 C 108.484375 0 71.382812 15.34375 43.472656 43.230469 C 15.558594 71.121094 0.203125 108.1875 0.203125 147.601562 C 0.203125 187.019531 15.558594 224.085938 43.472656 251.972656 C 71.382812 279.859375 108.484375 295.207031 147.933594 295.207031 C 177.6875 295.207031 206.082031 286.480469 230.226562 270.226562 L 318.957031 355.382812 C 322.109375 358.398438 326.246094 360.078125 330.628906 360.078125 C 335.007812 360.078125 339.628906 358.183594 342.78125 354.902344 C 349.21875 348.203125 349.003906 337.53125 342.300781 331.097656 Z M 212.839844 244.5 C 194.273438 256.9375 171.972656 264.195312 147.933594 264.195312 C 83.484375 264.195312 31.265625 211.996094 31.265625 147.628906 C 31.265625 83.261719 83.484375 31.035156 147.933594 31.035156 C 212.382812 31.035156 264.601562 83.234375 264.601562 147.601562 C 264.601562 179.519531 251.753906 208.449219 230.949219 229.503906 C 225.445312 235.082031 219.355469 240.125 212.8125 244.5 Z M 212.839844 244.5 "/></g></svg>