<svg xmlns="http://www.w3.org/2000/svg" xmlns:xlink="http://www.w3.org/1999/xlink" width="480" zoomAndPan="magnify" viewBox="0 0 360 360" height="480" preserveAspectRatio="xMidYMid meet" version="1.2"><path style=" stroke:none;fill-rule:nonzero;fill:#28d464;fill-opacity:1;" d="M 179.804688 0.328125 C 79.886719 0.664062 0.03125 81.90625 1.335938 181.816406 C 1.394531 186.835938 1.664062 191.84375 2.148438 196.839844 C 2.628906 201.835938 3.320312 206.804688 4.222656 211.742188 C 5.125 216.679688 6.234375 221.570312 7.546875 226.414062 C 8.863281 231.261719 10.378906 236.042969 12.097656 240.757812 C 13.816406 245.472656 15.730469 250.109375 17.839844 254.664062 C 19.949219 259.21875 22.246094 263.679688 24.734375 268.039062 C 27.21875 272.398438 29.886719 276.648438 32.730469 280.785156 C 35.574219 284.921875 38.589844 288.929688 41.773438 292.808594 C 42.273438 293.421875 42.726562 294.070312 43.128906 294.75 C 43.53125 295.429688 43.882812 296.136719 44.179688 296.871094 C 44.476562 297.601562 44.71875 298.351562 44.90625 299.121094 C 45.089844 299.890625 45.21875 300.667969 45.285156 301.457031 C 45.355469 302.246094 45.367188 303.035156 45.316406 303.824219 C 45.265625 304.613281 45.160156 305.394531 44.992188 306.167969 C 44.828125 306.941406 44.605469 307.699219 44.328125 308.4375 C 44.046875 309.179688 43.714844 309.894531 43.328125 310.582031 L 27.898438 338.230469 C 23.621094 345.894531 30.59375 354.957031 39.097656 352.792969 L 91.351562 339.488281 C 93.175781 339.023438 95.023438 338.890625 96.890625 339.082031 C 98.761719 339.273438 100.542969 339.78125 102.234375 340.605469 C 113.789062 346.21875 125.808594 350.53125 138.296875 353.546875 C 150.785156 356.558594 163.449219 358.203125 176.292969 358.480469 C 276.75 360.753906 359.207031 280.480469 359.519531 180 C 359.828125 80.617188 279.191406 -0.0078125 179.804688 0.328125 Z M 180.421875 336.457031 C 177.851562 336.457031 175.28125 336.394531 172.714844 336.269531 C 170.148438 336.144531 167.585938 335.953125 165.027344 335.703125 C 162.472656 335.449219 159.921875 335.136719 157.378906 334.757812 C 154.835938 334.382812 152.304688 333.941406 149.785156 333.441406 C 147.265625 332.941406 144.757812 332.378906 142.265625 331.753906 C 139.773438 331.128906 137.296875 330.441406 134.835938 329.699219 C 132.378906 328.953125 129.9375 328.144531 127.519531 327.28125 C 125.097656 326.414062 122.703125 325.488281 120.328125 324.507812 C 117.953125 323.523438 115.605469 322.480469 113.28125 321.382812 C 110.957031 320.285156 108.664062 319.128906 106.398438 317.917969 C 104.128906 316.707031 101.894531 315.441406 99.691406 314.117188 C 97.484375 312.796875 95.316406 311.421875 93.179688 309.996094 C 91.042969 308.566406 88.941406 307.085938 86.878906 305.558594 C 84.8125 304.027344 82.789062 302.445312 80.800781 300.816406 C 78.816406 299.183594 76.871094 297.507812 74.964844 295.78125 C 73.0625 294.054688 71.199219 292.285156 69.382812 290.464844 C 67.566406 288.648438 65.792969 286.789062 64.066406 284.882812 C 62.34375 282.980469 60.664062 281.035156 59.035156 279.046875 C 57.402344 277.0625 55.824219 275.035156 54.292969 272.972656 C 52.761719 270.90625 51.28125 268.808594 49.855469 266.671875 C 48.425781 264.535156 47.050781 262.363281 45.730469 260.160156 C 44.410156 257.953125 43.144531 255.71875 41.929688 253.453125 C 40.71875 251.1875 39.566406 248.890625 38.464844 246.566406 C 37.367188 244.246094 36.328125 241.894531 35.34375 239.519531 C 34.359375 237.148438 33.433594 234.75 32.570312 232.332031 C 31.703125 229.910156 30.898438 227.472656 30.152344 225.011719 C 29.40625 222.550781 28.71875 220.078125 28.09375 217.582031 C 27.472656 215.089844 26.90625 212.582031 26.40625 210.0625 C 25.90625 207.542969 25.464844 205.011719 25.089844 202.46875 C 24.710938 199.925781 24.398438 197.378906 24.144531 194.820312 C 23.894531 192.261719 23.703125 189.699219 23.578125 187.132812 C 23.453125 184.566406 23.390625 181.996094 23.390625 179.425781 C 23.390625 92.703125 93.695312 22.398438 180.421875 22.398438 C 266.808594 22.398438 336.90625 92.15625 337.449219 178.417969 C 337.992188 264.96875 266.976562 336.457031 180.421875 336.457031 Z M 180.421875 336.457031 "/><path style=" stroke:none;fill-rule:nonzero;fill:#28d464;fill-opacity:1;" d="M 152.355469 103.085938 L 152.425781 103.226562 L 161.792969 121.804688 C 162.296875 122.800781 162.71875 123.835938 163.054688 124.902344 C 163.390625 125.96875 163.640625 127.054688 163.800781 128.164062 C 163.964844 129.269531 164.035156 130.382812 164.015625 131.5 C 164 132.621094 163.890625 133.730469 163.695312 134.832031 C 163.496094 135.933594 163.214844 137.011719 162.84375 138.066406 C 162.472656 139.121094 162.019531 140.140625 161.480469 141.121094 C 160.945312 142.105469 160.335938 143.039062 159.648438 143.921875 C 158.964844 144.804688 158.210938 145.628906 157.394531 146.390625 C 156.578125 147.148438 155.828125 147.964844 155.144531 148.839844 C 154.460938 149.71875 153.851562 150.644531 153.316406 151.621094 C 152.78125 152.59375 152.324219 153.605469 151.953125 154.652344 C 151.582031 155.703125 151.292969 156.773438 151.09375 157.867188 C 150.894531 158.960938 150.78125 160.0625 150.757812 161.175781 C 150.734375 162.289062 150.800781 163.394531 150.957031 164.496094 C 151.109375 165.597656 151.351562 166.679688 151.679688 167.742188 C 152.011719 168.804688 152.421875 169.835938 152.914062 170.832031 C 158.539062 182.121094 168.277344 197.683594 183.144531 208.910156 C 183.972656 209.539062 184.84375 210.105469 185.753906 210.601562 C 186.667969 211.101562 187.613281 211.53125 188.589844 211.886719 C 189.566406 212.246094 190.5625 212.527344 191.582031 212.734375 C 192.601562 212.945312 193.632812 213.074219 194.667969 213.128906 C 195.707031 213.183594 196.746094 213.160156 197.78125 213.058594 C 198.816406 212.957031 199.835938 212.78125 200.847656 212.527344 C 201.855469 212.273438 202.839844 211.945312 203.796875 211.546875 C 204.757812 211.144531 205.683594 210.675781 206.574219 210.136719 L 212.605469 206.464844 C 213.957031 205.644531 215.382812 204.984375 216.886719 204.484375 C 218.390625 203.988281 219.929688 203.667969 221.507812 203.523438 C 223.085938 203.375 224.65625 203.410156 226.226562 203.625 C 227.796875 203.839844 229.320312 204.226562 230.800781 204.789062 L 254.773438 213.90625 C 255.410156 214.148438 256.035156 214.417969 256.644531 214.722656 C 257.253906 215.027344 257.847656 215.359375 258.425781 215.71875 C 259.003906 216.082031 259.5625 216.472656 260.101562 216.886719 C 260.640625 217.304688 261.15625 217.746094 261.652344 218.214844 C 262.148438 218.679688 262.617188 219.171875 263.066406 219.683594 C 263.515625 220.199219 263.933594 220.734375 264.332031 221.289062 C 264.726562 221.84375 265.09375 222.414062 265.429688 223.007812 C 265.769531 223.597656 266.078125 224.203125 266.355469 224.824219 C 266.636719 225.445312 266.882812 226.082031 267.101562 226.726562 C 267.316406 227.371094 267.503906 228.027344 267.65625 228.691406 C 267.808594 229.355469 267.925781 230.023438 268.011719 230.699219 C 268.101562 231.375 268.152344 232.054688 268.171875 232.734375 C 268.195312 233.417969 268.179688 234.097656 268.132812 234.777344 C 268.085938 235.457031 268.007812 236.132812 267.894531 236.804688 C 267.78125 237.476562 267.632812 238.140625 267.457031 238.796875 C 267.277344 239.453125 267.066406 240.101562 266.824219 240.738281 C 266.542969 241.46875 266.226562 242.183594 265.867188 242.882812 L 259.222656 255.757812 C 258.683594 256.800781 258.0625 257.789062 257.359375 258.726562 C 256.652344 259.660156 255.875 260.53125 255.023438 261.335938 C 254.171875 262.140625 253.257812 262.871094 252.28125 263.519531 C 251.308594 264.171875 250.285156 264.734375 249.214844 265.210938 C 248.144531 265.691406 247.042969 266.074219 245.90625 266.367188 C 244.769531 266.65625 243.621094 266.851562 242.453125 266.949219 C 241.285156 267.046875 240.117188 267.042969 238.949219 266.945312 C 237.78125 266.84375 236.628906 266.644531 235.496094 266.351562 C 197.839844 256.609375 108.105469 222.746094 100.875 120.351562 C 100.800781 119.34375 100.804688 118.332031 100.878906 117.320312 C 100.957031 116.3125 101.105469 115.3125 101.328125 114.324219 C 101.550781 113.335938 101.84375 112.367188 102.207031 111.421875 C 102.570312 110.476562 103 109.5625 103.496094 108.679688 C 103.992188 107.796875 104.550781 106.953125 105.171875 106.152344 C 105.789062 105.351562 106.464844 104.597656 107.195312 103.894531 C 107.925781 103.191406 108.703125 102.546875 109.527344 101.957031 C 110.351562 101.367188 111.210938 100.839844 112.113281 100.378906 L 124.339844 94.097656 C 124.949219 93.785156 125.566406 93.503906 126.199219 93.253906 C 126.835938 93 127.480469 92.78125 128.132812 92.59375 C 128.789062 92.40625 129.453125 92.253906 130.121094 92.132812 C 130.792969 92.007812 131.464844 91.917969 132.144531 91.863281 C 132.824219 91.808594 133.503906 91.785156 134.1875 91.796875 C 134.867188 91.808594 135.546875 91.851562 136.222656 91.929688 C 136.898438 92.007812 137.570312 92.117188 138.238281 92.261719 C 138.902344 92.402344 139.5625 92.578125 140.210938 92.789062 C 140.859375 92.996094 141.496094 93.234375 142.121094 93.507812 C 142.746094 93.777344 143.355469 94.078125 143.953125 94.410156 C 144.546875 94.738281 145.125 95.097656 145.6875 95.484375 C 146.246094 95.875 146.785156 96.289062 147.304688 96.726562 C 147.824219 97.167969 148.324219 97.632812 148.796875 98.125 C 149.269531 98.613281 149.71875 99.125 150.144531 99.65625 C 150.566406 100.191406 150.964844 100.742188 151.332031 101.316406 C 151.703125 101.890625 152.042969 102.476562 152.355469 103.085938 Z M 152.355469 103.085938 "/></svg>