<svg width="185" height="226" viewBox="0 0 185 226" fill="none" xmlns="http://www.w3.org/2000/svg">
<g clip-path="url(#clip0_2_2)">
<path d="M0.630005 65C1.01 45.75 20.38 39.27 34.44 30.9C48.5 22.53 65.24 11.04 80.38 3.39998C88.94 -0.92002 96.5 -0.990007 105.06 3.45999C113.62 7.90999 123.16 14.58 131.85 19.71C145.08 27.52 160.9 35.54 173.32 44.11C179.98 48.71 183.62 55.35 184.83 63.3L184.81 141.94C184.11 150.04 179 157.12 172.2 161.9C161.34 169.54 147.23 176.32 135.65 183.36C113.76 196.67 92.37 210.79 70.45 224.05C68.8 225.05 66.92 225.69 64.99 225.73C60.55 225.82 57.6 223 57.18 217.58C56.54 209.45 58 200.14 57.18 192.11C56.91 189.45 55.29 187.53 53.19 185.99C41.85 177.73 26.91 171.07 14.93 163.24C6.85999 157.97 0.809994 150.61 0.649994 140.47L0.630005 139.88V65ZM149.47 47.19C132.77 37.23 115.76 27.76 99.23 17.52C93.76 14.69 90.67 14.82 85.31 17.69C74.18 23.65 62.68 31.46 51.71 37.99C45.59 41.63 39.21 44.92 33.11 48.59C27.01 52.26 16.62 57.12 15.3 64.47C14.42 69.33 14.87 78.95 14.88 84.76C14.71 101.34 14.94 118.01 15.15 134.52C15.27 144.48 16.93 146.45 25.05 151.65C42.98 163.13 62.5 174.86 80.89 185.64C88.07 189.85 91.02 192.72 99.31 188.19C121.26 175.38 143.12 163.18 164.29 148.94C164.37 148.89 164.45 148.84 164.52 148.78C170.99 143.27 170.39 138.64 170.64 131.04C170.79 112.95 170.75 93.75 170.38 75.27C170.31 70.03 170.74 65.1 168.05 60.27C165.32 55.38 154.52 50.22 149.48 47.22V47.2L149.47 47.19Z" fill="black"/>
<path d="M36.15 73.29C36.15 77.33 39.42 80.6 43.46 80.6H141.7C145.74 80.6 149.01 77.33 149.01 73.29C149.01 69.25 145.74 65.98 141.7 65.98H43.46C39.42 65.98 36.15 69.25 36.15 73.29Z" fill="black"/>
<path d="M36.15 104.93C36.15 108.97 39.42 112.24 43.46 112.24H141.7C145.74 112.24 149.01 108.97 149.01 104.93C149.01 100.89 145.74 97.62 141.7 97.62H43.46C39.42 97.62 36.15 100.89 36.15 104.93Z" fill="black"/>
<path d="M36.15 136.57C36.15 140.61 39.42 143.88 43.46 143.88H116.89C120.93 143.88 124.2 140.61 124.2 136.57C124.2 132.53 120.93 129.26 116.89 129.26H43.46C39.42 129.26 36.15 132.53 36.15 136.57Z" fill="black"/>
</g>
<defs>
<clipPath id="clip0_2_2">
<rect width="185" height="226" fill="white"/>
</clipPath>
</defs>
</svg>
