<svg width="185" height="226" viewBox="0 0 185 226" fill="none" xmlns="http://www.w3.org/2000/svg">
    <g clip-path="url(#clip0)">
        <path
            d="M0.63 65c.38-19.25 19.75-25.73 33.81-34.1 14.06-8.37 30.8-19.86 45.94-27.5 8.56-4.32 16.12-4.39 24.68.06 8.56 4.45 18.1 11.12 26.79 16.24 13.23 7.81 29.05 15.83 41.47 24.4 6.66 4.6 10.3 11.24 11.51 19.19v78.64c-.7 8.1-5.81 15.18-12.61 19.96-10.86 7.64-24.97 14.42-36.55 21.46-21.89 13.31-43.28 27.43-65.2 40.69-1.65 1-3.53 1.64-5.46 1.68-4.44.09-7.39-2.73-7.81-8.15-.64-8.13.82-17.44 0-25.47-.27-2.66-1.89-4.58-3.99-6.12-11.34-8.26-26.28-14.92-38.26-22.75-8.07-5.27-14.12-12.63-14.28-22.77l-.02-.59V65zm148.84-17.81c-16.7-9.96-33.71-19.43-50.24-29.67-5.47-2.83-8.56-2.7-13.92.17-11.13 5.96-22.63 13.77-33.6 20.3-6.12 3.64-12.5 6.93-18.6 10.6-6.1 3.67-16.49 8.53-17.81 15.88-.88 4.86-.43 14.48-.42 20.29-.17 16.58.06 33.25.27 49.76.12 9.96 1.78 11.93 9.9 17.13 17.93 11.48 37.45 23.21 55.84 34 7.18 4.21 10.13 7.08 18.42 2.55 21.95-12.81 43.81-25.01 64.98-39.25.08-.05.16-.1.23-.16 6.47-5.51 5.87-10.14 6.12-17.74.15-18.09.11-37.29-.26-55.77-.07-5.24.36-10.17-2.33-15-2.73-4.89-13.53-10.05-18.57-13.05z"
            fill="#1A1A1A" />
        <path
            d="M36.15 73.29c0 4.04 3.27 7.31 7.31 7.31h98.24c4.04 0 7.31-3.27 7.31-7.31s-3.27-7.31-7.31-7.31H43.46c-4.04 0-7.31 3.27-7.31 7.31z"
            fill="#1A1A1A" />
        <path
            d="M36.15 104.93c0 4.04 3.27 7.31 7.31 7.31h98.24c4.04 0 7.31-3.27 7.31-7.31s-3.27-7.31-7.31-7.31H43.46c-4.04 0-7.31 3.27-7.31 7.31z"
            fill="#1A1A1A" />
        <path
            d="M36.15 136.57c0 4.04 3.27 7.31 7.31 7.31h73.43c4.04 0 7.31-3.27 7.31-7.31s-3.27-7.31-7.31-7.31H43.46c-4.04 0-7.31 3.27-7.31 7.31z"
            fill="#1A1A1A" />
    </g>
    <defs>
        <clipPath id="clip0">
            <rect width="185" height="226" fill="white" />
        </clipPath>
    </defs>
</svg>