<?xml version="1.0" encoding="UTF-8"?>
<svg xmlns="http://www.w3.org/2000/svg" xmlns:xlink="http://www.w3.org/1999/xlink" width="378" height="378" viewBox="0 0 283.5 283.5" version="1.2">
  <!-- Add circular background with larger radius -->
  <circle cx="141.75" cy="141.75" r="141.75" fill="#ffffff"/>
  
  <!-- Original logo content with scaling and translation for better spacing -->
  <g transform="translate(18, 18) scale(0.9)">
    <path style="stroke:none;fill-rule:nonzero;fill:#000000;fill-opacity:1;" d="M 35.808594 86.191406 C 36.246094 64.074219 58.507812 56.625 74.671875 47.007812 C 90.832031 37.390625 110.074219 24.1875 127.476562 15.410156 C 137.316406 10.445312 146.007812 10.363281 155.847656 15.476562 C 165.6875 20.589844 176.652344 28.257812 186.640625 34.152344 C 201.847656 43.125 220.03125 52.339844 234.308594 62.1875 C 241.964844 67.472656 246.148438 75.105469 247.539062 84.238281 L 247.515625 174.601562 C 246.710938 183.910156 240.839844 192.042969 233.023438 197.539062 C 220.539062 206.316406 204.320312 214.105469 191.007812 222.195312 C 165.847656 237.492188 141.261719 253.714844 116.0625 268.953125 C 114.167969 270.101562 112.007812 270.835938 109.789062 270.882812 C 104.683594 270.984375 101.292969 267.746094 100.808594 261.515625 C 100.074219 252.175781 101.753906 241.476562 100.808594 232.25 C 100.5 229.195312 98.636719 226.988281 96.222656 225.21875 C 83.1875 215.726562 66.015625 208.074219 52.246094 199.078125 C 42.96875 193.019531 36.015625 184.5625 35.832031 172.914062 L 35.808594 172.234375 Z M 206.894531 65.726562 C 187.699219 54.28125 168.144531 43.402344 149.144531 31.632812 C 142.859375 28.382812 139.304688 28.53125 133.144531 31.828125 C 120.351562 38.679688 107.132812 47.652344 94.523438 55.15625 C 87.488281 59.339844 80.152344 63.117188 73.140625 67.335938 C 66.128906 71.554688 54.1875 77.136719 52.671875 85.582031 C 51.660156 91.167969 52.175781 102.222656 52.1875 108.898438 C 51.992188 127.949219 52.257812 147.105469 52.496094 166.074219 C 52.636719 177.519531 54.542969 179.785156 63.878906 185.757812 C 84.488281 198.949219 106.925781 212.429688 128.0625 224.816406 C 136.316406 229.652344 139.707031 232.953125 149.238281 227.746094 C 174.46875 213.027344 199.59375 199.007812 223.929688 182.644531 C 224.023438 182.585938 224.113281 182.53125 224.195312 182.460938 C 231.632812 176.128906 230.941406 170.808594 231.230469 162.078125 C 231.402344 141.289062 231.355469 119.226562 230.929688 97.992188 C 230.847656 91.972656 231.34375 86.308594 228.25 80.757812 C 225.113281 75.136719 212.699219 69.207031 206.90625 65.761719 L 206.90625 65.738281 Z M 206.894531 65.726562 "/>
    <path style="stroke:none;fill-rule:nonzero;fill:#000000;fill-opacity:1;" d="M 76.636719 95.71875 C 76.636719 100.359375 80.394531 104.117188 85.039062 104.117188 L 197.964844 104.117188 C 202.605469 104.117188 206.367188 100.359375 206.367188 95.71875 C 206.367188 91.074219 202.605469 87.316406 197.964844 87.316406 L 85.039062 87.316406 C 80.394531 87.316406 76.636719 91.074219 76.636719 95.71875 Z M 76.636719 95.71875 "/>
    <path style="stroke:none;fill-rule:nonzero;fill:#000000;fill-opacity:1;" d="M 76.636719 132.074219 C 76.636719 136.71875 80.394531 140.472656 85.039062 140.472656 L 197.964844 140.472656 C 202.605469 140.472656 206.367188 136.71875 206.367188 132.074219 C 206.367188 127.433594 202.605469 123.675781 197.964844 123.675781 L 85.039062 123.675781 C 80.394531 123.675781 76.636719 127.433594 76.636719 132.074219 Z M 76.636719 132.074219 "/>
    <path style="stroke:none;fill-rule:nonzero;fill:#000000;fill-opacity:1;" d="M 76.636719 168.429688 C 76.636719 173.074219 80.394531 176.832031 85.039062 176.832031 L 169.445312 176.832031 C 174.089844 176.832031 177.847656 173.074219 177.847656 168.429688 C 177.847656 163.789062 174.089844 160.03125 169.445312 160.03125 L 85.039062 160.03125 C 80.394531 160.03125 76.636719 163.789062 76.636719 168.429688 Z M 76.636719 168.429688 "/>
  </g>
</svg>